<?xml version="1.0" encoding="utf-8"?>
<!-- Generator: Adobe Illustrator 25.2.3, SVG Export Plug-In . SVG Version: 6.00 Build 0)  -->
<svg version="1.1" id="Layer_2_1_" xmlns="http://www.w3.org/2000/svg" xmlns:xlink="http://www.w3.org/1999/xlink" x="0px" y="0px"
	 viewBox="0 0 56.7 56.7" style="enable-background:new 0 0 56.7 56.7;" xml:space="preserve">
<g>
	<path d="M39.5,25.5c-3.7,0-4.2,3.6-4.2,3.6h7.8C43.1,29.2,43.2,25.5,39.5,25.5z"/>
	<path d="M21.9,29.2H15v6.3h6.1c0.1,0,0.3,0,0.4,0c1,0,2.8-0.3,2.8-3.1C24.4,29.1,21.9,29.2,21.9,29.2z"/>
	<path d="M28.3,0C12.7,0,0,12.7,0,28.3s12.7,28.3,28.3,28.3C44,56.7,56.7,44,56.7,28.3C56.7,12.7,44,0,28.3,0z M34.3,17.4h9.8v2.9
		h-9.8V17.4z M29.4,32.7c0,7.2-7.5,7-7.5,7H15h-0.2H9.6V16h5.2H15h6.9c3.7,0,6.7,2.1,6.7,6.3S25,26.8,25,26.8
		C29.7,26.8,29.4,32.7,29.4,32.7z M47.6,32.3H35.4c0,4.4,4.2,4.1,4.2,4.1c3.9,0,3.8-2.5,3.8-2.5h4.2c0,6.8-8.1,6.3-8.1,6.3
		c-9.7,0-9.1-9-9.1-9s0-9.1,9.1-9.1C49,22,47.6,32.3,47.6,32.3z"/>
	<path d="M23.5,22.7c0-2.5-1.7-2.5-1.7-2.5H21h-6v5.3h6.5C22.6,25.5,23.5,25.1,23.5,22.7z"/>
</g>
</svg>
