<svg id="Layer_1" data-name="Layer 1" xmlns="http://www.w3.org/2000/svg" viewBox="0 0 492.89 478.8"><defs><style>.cls-1{fill:#231f20;}</style></defs><path class="cls-1" d="M254.76,83.8c14.95-1.44,16.05-2.2,26.67-4.88-2.54,7.23-11.43,35.25-14.38,46.93l-11.69,43.53,14.23.77q9.89.47,21.56-5t20.87-19a51.37,51.37,0,0,0,9.2-29.37q0-15.61-11.19-24.73T275.82,83Q249.57,83,224.4,96t-38.83,33.39q-13.66,20.33-13.67,40.11a37.81,37.81,0,0,0,3.56,16.93q3.56,7.18,12.67,14.14,7.58,5.57,7.58,10.82a7.51,7.51,0,0,1-2.49,5.72,8.36,8.36,0,0,1-5.9,2.32q-9.15,0-17.7-12.52t-8.54-31.69q0-35.08,26.9-64,35.25-38,94.6-38,22.56,0,37,5.87t21.64,16.08a37.62,37.62,0,0,1,7.19,22.1q0,15.15-10.09,29.76t-29.73,23.57q-19.64,9-43.66,9-3.7,0-11.56-.47L241,227.22c-2.05,8.13-4.74,17.86-7.31,25.78,8,2,17.79-3.55,21.35,1.24,1.66,2.22-8.64,2.88,0,0l3.9,7.53c-8,2.16,3.65,0-1.9,0-5.36,0-14.32-3.05-24.61-4.18-8.24-1-13.79.94-18.94.94-10,0,9.55-3.83-.95-1.46l1.17-3.86c10.71-1.75-4.54,0-.63-3.33,5.56-4.64,3.56-17.53,7.06-31.54l23.31-92.6m4.08-18.1"/><path class="cls-1" d="M321.59,201.94l-.93,3.87A82.47,82.47,0,0,0,300,213.53q-8.19,4.65-22.1,16.85c-24.68,21.54-4.72,4.17-23.09,19.33,5.26,6.49,10.42,17,14.13,25.09s10.16,26.53,19.35,55.49q12.38,38.81,25.22,52.4t26.15,13.6q12.84,0,17.49-13.6,2.77-8,4.79-9.89a9.09,9.09,0,0,1,6.18-2.47,8.76,8.76,0,0,1,6.34,2.55A8.21,8.21,0,0,1,377,379q0,9.27-11,17.93t-27.84,8.66a55.19,55.19,0,0,1-27.62-7.42q-13.06-7.42-23.9-23.34t-22.12-49.32Q254,294,248.32,282.28a140.12,140.12,0,0,0-15.93-24.65L221,303.24c-3.3,12.68-5.37,18.74-6.19,24.21q10.51,4.49,18.87,4.48,2,0,5.72-.31l-2,7.73c-2.06.1-3.34.16-3.86.16a137.27,137.27,0,0,1-14.5-1.09,155,155,0,0,0-16.21-1.08q-12.81,0-40.58,5l.93-7.42q14.76-2.94,20.77-8.12c4-3.45,7.18-5.89,9.54-13.31,5.46-16.69,7.58-24.78,16.34-58.27L230,179.4c-20.37,1.24-37.81,10.07-49.64,18.11-9.15,6.08-17.13,11-17.13,18.55,0,2.68,4.66,7.93,7.19,12.06,2.31,3.71,3.48,6.7,3.48,9a10.23,10.23,0,0,1-3.08,7.34,9.69,9.69,0,0,1-7.21,3.17q-4.75,0-8.52-4.79t-3.76-12.67q0-21.49,21.37-38.73c14.26-11.49,38.72-22,74-22h8.61c-5.67,14.71-7.65,30.16-9.4,36.74L233.65,253c7.63-2.88-25.47,18.2-15.31,11.24s19.94-14.35,29.33-22.18c17.23-14.43,27-22.19,29.4-25.28a4.89,4.89,0,0,0,1.08-2.63c0-.82-1-1.57-3.16-2.24s-8.07-1.1-17.86-1.31l2-8.66q19.78,1.86,32.46,1.86A279.69,279.69,0,0,0,321.59,201.94Z"/></svg>